<svg xmlns="http://www.w3.org/2000/svg" viewBox="0 0 163.27 142.52"><defs><style>.cls-1{fill:#fff}.cls-1,.cls-3,.cls-4{stroke:#37414c}.cls-1,.cls-3,.cls-4,.cls-7{stroke-linecap:round;stroke-linejoin:round;stroke-width:2.2px}.cls-4{fill:#e0e3e5}.cls-3,.cls-7{fill:none}.cls-7{stroke:#37414b}</style></defs><path class="cls-1" d="M136.19 35.66l-10.66-10.68 9.71-9.71 10.65 10.68-9.7 9.71z"/><path d="M-1030.84 7414.87a47.9 47.9 0 0 1-7.09-17.72c-1.48-8.19 10-6.93 11.61-.18a36.16 36.16 0 0 0 9.37 17c3.52 3.59 31.84 9.76 41.53-.36a35.72 35.72 0 0 0 7.63-12.08 36 36 0 0 0-20.83-46.42l4-10.67a47.46 47.46 0 0 1 27.44 61.14 47 47 0 0 1-4.92 9.54c-8.3 8.11-63.46 7.78-68.74-.25z" transform="translate(1106.5 -7283.72)" fill="#e0e3e5"/><path class="cls-3" d="M-975.42 7413.65a35.72 35.72 0 0 0 7.63-12.08 36 36 0 0 0-20.83-46.42l4-10.67a47 47 0 0 1 21.86 17M-1029.44 7416.89a48 48 0 0 1-8.49-19.74c-1.48-8.19 10-6.93 11.61-.18a36 36 0 0 0 22.22 25.44M-956.71 7373.14a47.22 47.22 0 0 1-.42 32.48 47.26 47.26 0 0 1-7.74 13.34" transform="translate(1106.5 -7283.72)"/><path class="cls-4" d="M109.5 31.4l12.3-12.3 20.25 20.27-40.32 40.34-20.25-20.27 18.69-18.7"/><path class="cls-1" transform="rotate(45.02 8322.904 5049.756)" d="M-1037.9 7352.48h39.24v8.35h-39.24z"/><path class="cls-4" d="M74.92 82.87l-6.12-6.14 8.67-8.67 6.12 6.14-8.67 8.67zM85.91 93.86l-6.12-6.14 8.67-8.67 6.12 6.14-8.67 8.67z"/><path class="cls-1" d="M53.29 106.61h43.28v8.75H53.29z"/><ellipse class="cls-1" cx="119.43" cy="61.26" rx="12.45" ry="12.46"/><path class="cls-1" d="M-944.35 7425.15s1-12.39-14-12.39h-80.1c-15 0-14 12.39-14 12.39z" transform="translate(1106.5 -7283.72)"/><rect x="1.1" y="16.62" width="57.18" height="34.28" rx="4" fill="#fff"/><path d="M-1105.4 7300.35v-7.78a3.36 3.36 0 0 1 3.35-3.38h50.47a3.37 3.37 0 0 1 3.36 3.38v7.78z" transform="translate(1106.5 -7283.72)" fill="#84d1f5"/><path class="cls-7" d="M1.22 16.62h57.06M15.79 1.1v8.67M40.95 1.1v8.67M28.37 1.1v8.67"/><path class="cls-7" d="M-1105.4 7306.32V7294a4.82 4.82 0 0 1 4.79-4.82h9.78M-1060.51 7289.19h7.61a4.82 4.82 0 0 1 4.79 4.82v35.8a4.81 4.81 0 0 1-4.79 4.81h-47.71a4.81 4.81 0 0 1-4.79-4.81v-14" transform="translate(1106.5 -7283.72)"/><path class="cls-7" d="M33.48 5.47h7.33M20.88 5.47h7.44M26 25.04v17.23M44.48 25.04H33.45v8.26h11.03v8.97H33.45M15.02 25.04l.11 8.26H26"/></svg>
