<svg xmlns="http://www.w3.org/2000/svg" viewBox="0 0 184.43 142.66"><defs><style>.cls-1{fill:#fff}.cls-3{fill:none}.cls-3,.cls-5{stroke:#37414b;stroke-linecap:round;stroke-linejoin:round;stroke-width:2.2px}.cls-4,.cls-5{fill:#e0e3e5}</style></defs><rect class="cls-1" x="1.1" y="16.62" width="57.18" height="34.28" rx="4"/><path d="M-954.2 7074.29v-7.78a3.36 3.36 0 0 1 3.35-3.37h50.47a3.37 3.37 0 0 1 3.36 3.37v7.78z" transform="translate(955.3 -7057.67)" fill="#84d1f5"/><path class="cls-3" d="M1.22 16.62h57.06M15.79 1.1v8.67M40.95 1.1v8.67M28.37 1.1v8.67"/><path class="cls-3" d="M-954.2 7080.27V7068a4.81 4.81 0 0 1 4.79-4.81h9.78M-909.31 7063.14h7.61a4.81 4.81 0 0 1 4.79 4.81v35.81a4.81 4.81 0 0 1-4.79 4.81h-47.71a4.81 4.81 0 0 1-4.79-4.81v-14" transform="translate(955.3 -7057.67)"/><path class="cls-3" d="M33.48 5.47h7.33M20.88 5.47h7.44M26.02 33.3H14.99M14.99 25.04h11.03v16.53H14.99M44.51 42.27V25.04H33.48"/><path class="cls-1" d="M167.66 99.74V75.06H73.6v24.68h-7.21v41.82H175V99.74h-7.34z"/><path class="cls-4" d="M66.39 99.74h108.62v13.02H66.39zM73.6 62.8h94.05v13.02H73.6z"/><path class="cls-3" d="M-787.65 7157.41h5.23a2.62 2.62 0 0 1 2.61 2.64v39.19M-889.54 7199.24v-39.19a2.62 2.62 0 0 1 2.61-2.64h59.11M-881.7 7157.41v-34.3a2.63 2.63 0 0 1 2.61-2.64h88.83a2.63 2.63 0 0 1 2.61 2.64v34.3h-27.78" transform="translate(955.3 -7057.67)"/><path class="cls-3" d="M84.05 47.74v14.17"/><path class="cls-5" d="M-868.64 7097.35a2.62 2.62 0 0 1-2.61 2.64 2.63 2.63 0 0 1-2.62-2.64c0-1.46 1.17-7.91 2.62-7.91s2.61 6.45 2.61 7.91z" transform="translate(955.3 -7057.67)"/><path class="cls-3" d="M159.82 47.74v14.17"/><path class="cls-5" d="M-792.88 7097.35a2.62 2.62 0 0 1-2.61 2.64 2.62 2.62 0 0 1-2.61-2.64c0-1.46 1.17-7.91 2.61-7.91s2.61 6.45 2.61 7.91z" transform="translate(955.3 -7057.67)"/><path class="cls-3" d="M133.69 47.74v14.17"/><path class="cls-5" d="M-819 7097.35a2.62 2.62 0 0 1-2.61 2.64 2.63 2.63 0 0 1-2.62-2.64c0-1.46 1.17-7.91 2.62-7.91s2.61 6.45 2.61 7.91z" transform="translate(955.3 -7057.67)"/><path class="cls-3" d="M107.56 47.74v14.17"/><path class="cls-5" d="M-845.13 7097.35a2.62 2.62 0 0 1-2.61 2.64 2.62 2.62 0 0 1-2.61-2.64c0-1.46 1.17-7.91 2.61-7.91s2.61 6.45 2.61 7.91z" transform="translate(955.3 -7057.67)"/><path class="cls-3" d="M57.92 141.56h125.41M73.6 75.82h74.83M92.23 112.76h82.64"/></svg>
