<svg xmlns="http://www.w3.org/2000/svg" viewBox="0 0 119 59"><defs></defs><title>metric</title><path class="cls-2" d="M203.64,1289.28a42.83,42.83,0,0,1,42,0l8.29-14.37a59.35,59.35,0,0,0-58.61,0Z" transform="translate(-165.16 -1267.17)"/><path class="cls-1" d="M165.16,1326.17h16.6a42.59,42.59,0,0,1,16.67-33.45l-8.34-14.44A59.63,59.63,0,0,0,165.16,1326.17Z" transform="translate(-165.16 -1267.17)"/><path class="cls-3" d="M250.88,1292.72a42.59,42.59,0,0,1,16.67,33.45h16.6a59.63,59.63,0,0,0-24.93-47.89Z" transform="translate(-165.16 -1267.17)"/></svg>
