<svg xmlns="http://www.w3.org/2000/svg" viewBox="0 0 15 38.08"><g data-name="Layer 2" fill="#fff"><g data-name="Layer 1" fill="#fff"><path d="M12.69 6.92v13.55s-.2.39-.34.61a16.48 16.48 0 0 1-1.28 1.85c-1.24 1.56-2.5 2.45-3.57 2.45s-2.33-.89-3.57-2.45a16.48 16.48 0 0 1-1.28-1.85c-.14-.22-.34-.61-.34-.61V6.92zM0 5.77v15a1.17 1.17 0 0 0 .12.52c.1.2.29.54.55 1a18.48 18.48 0 0 0 1.46 2.11c1.64 2.06 3.41 3.32 5.37 3.32s3.73-1.26 5.37-3.32a18.48 18.48 0 0 0 1.46-2.11c.26-.43.45-.77.55-1a1.17 1.17 0 0 0 .12-.52v-15a1.15 1.15 0 0 0-1.15-1.15H1.15A1.15 1.15 0 0 0 0 5.77z"/><path d="M8.65 13.85h4.62a1.15 1.15 0 0 1 0 2.3H8.65V26a1.15 1.15 0 1 1-2.3 0v-9.85H1.73a1.15 1.15 0 1 1 0-2.3h4.62v-7.5a1.15 1.15 0 1 1 2.3 0v7.5zM8.65 1.15a1.15 1.15 0 0 0-2.3 0v1.16a1.15 1.15 0 0 0 2.3 0zM8.65 30a1.15 1.15 0 0 0-2.3 0v6.92a1.15 1.15 0 1 0 2.3 0z"/></g></g></svg>
